Coordinates
version=1
nRows=6
nColumns=36
inDegrees=yes

Units are S.I. units (second, meters, Newtons, ...)
If the header above contains a line with 'inDegrees', this indicates whether rotational values are in degrees (yes) or radians (no).

endheader
time	pelvis_tilt	pelvis_list	pelvis_rotation	pelvis_tx	pelvis_ty	pelvis_tz	hip_flexion_r	hip_adduction_r	hip_rotation_r	knee_angle_r	knee_angle_r_beta	ankle_angle_r	subtalar_angle_r	mtp_angle_r	hip_flexion_l	hip_adduction_l	hip_rotation_l	knee_angle_l	knee_angle_l_beta	ankle_angle_l	subtalar_angle_l	mtp_angle_l	lumbar_extension	lumbar_bending	lumbar_rotation	arm_flex_r	arm_add_r	arm_rot_r	elbow_flex_r	pro_sup_r	arm_flex_l	arm_add_l	arm_rot_l	elbow_flex_l	pro_sup_l
      0.99000000	     -9.16562936	      0.69132484	     -2.56670244	     -0.74025556	      1.31833435	     -0.56992844	     22.64113985	     -0.19276935	      2.78683741	     54.08540291	      0.94396836	    -25.24203068	    -16.36449539	     -4.72913665	     15.71479691	     -2.74348498	     -4.10875760	     45.72005414	      0.79796548	    -25.21068822	    -10.82914570	     -4.72913665	     -4.25799308	     -0.67754500	      0.18953954	     41.79301393	    -24.01935239	     14.98796997	     70.46227204	    109.95456751	     64.49297035	    -16.51019019	     15.28437573	     45.82310522	    110.48476875
      1.00000000	     -9.07833621	      0.76483106	     -2.25792002	     -0.73114389	      1.32274862	     -0.56965516	     23.76415897	     -0.41016006	      2.64240287	     53.53838982	      0.93442118	    -25.32259712	    -16.30083654	     -4.74935661	     17.14736157	     -2.87454882	     -3.90268588	     46.02783542	      0.80333728	    -25.07125401	    -11.32954040	     -4.74935661	     -4.86132474	     -0.87275111	      0.14599480	     41.48033420	    -24.39609952	     14.80878609	     69.60850957	    109.91999828	     64.72231058	    -16.74327037	     15.26043704	     45.57935646	    110.53993740
      1.01000000	     -9.23391200	      0.76710730	     -1.91962429	     -0.72220744	      1.32586477	     -0.56945233	     24.93429040	     -0.55908401	      2.53352998	     52.28263937	      0.91250420	    -25.26768298	    -16.39191328	     -4.77733456	     18.74479244	     -3.06392867	     -3.68372473	     45.76878577	      0.79881601	    -25.04317151	    -12.23086563	     -4.77733456	     -5.18112484	     -0.91067019	      0.07204089	     41.30988599	    -24.63792595	     14.58197573	     68.45044846	    109.86659745	     64.90714102	    -17.02450902	     15.43212248	     44.93378442	    110.59332786
      1.02000000	     -9.22160270	      0.92435090	     -1.66314665	     -0.71362683	      1.32830501	     -0.56915779	     25.76606969	     -0.86126092	      2.63129956	     50.39668357	      0.87958806	    -25.04058817	    -16.46351121	     -4.78937646	     20.10944559	     -3.11366965	     -3.63583119	     45.05125943	      0.78629281	    -24.90910565	    -12.65481306	     -4.78937646	     -5.86847338	     -1.14453596	      0.10263736	     41.21954011	    -24.96274492	     14.43653977	     67.70555830	    109.82615051	     65.20961465	    -17.33521356	     15.48090618	     44.60201932	    110.60422212
      1.03000000	     -9.00203742	      0.83607236	     -1.30294002	     -0.70513549	      1.33038768	     -0.56942402	     26.03510246	     -1.04173950	      2.49676813	     47.65066716	      0.83166103	    -25.20547292	    -16.33233743	     -4.83632711	     21.11624665	     -3.23370573	     -3.19926875	     43.70495511	      0.76279537	    -25.05543089	    -13.52936508	     -4.83632711	     -6.76803805	     -1.00784026	      0.04500336	     41.46460351	    -25.12507124	     14.13981315	     66.05321777	    109.74859282	     65.69204819	    -17.55053813	     16.05673073	     43.49127309	    110.68077588
      1.04000000	     -9.07607969	      1.04309822	     -1.05692467	     -0.69671043	      1.33101974	     -0.56975589	     26.58051205	     -1.53023611	      2.58453345	     44.73544816	      0.78078086	    -24.99306858	    -16.25426040	     -4.85034999	     22.31020932	     -3.04068779	     -2.93888455	     41.90720798	      0.73141876	    -24.67865249	    -13.65324338	     -4.85034999	     -7.41931526	     -1.14593086	      0.15793932	     41.40603632	    -25.61909418	     14.03491950	     65.36663461	    109.70549680	     65.84063243	    -17.80287573	     16.20482143	     43.25219397	    110.69990166
